<svg t="1651830404498" class="icon" viewBox="0 0 1024 1024" version="1.1" xmlns="http://www.w3.org/2000/svg" p-id="4017" width="200" height="200"><path d="M763.5 853S1258.4 702.6 876 439.6C833.9 246.7 766.7 76 530.7 95.6S-124.3 294.8 45 466.2c149.6 151.4 509.1 85.1 200.8 340-61 50.4-20.6 149.2 58.2 142.1C508.2 929.8 763.5 853 763.5 853z" fill="#A3CCBC" p-id="4018"></path><path d="M368.3 601.6S618 858.1 723 864.6c75.2-22.7 279.4-91.1 299.2-216.7-11.9-68.9-25.4-127.5-80.1-156.3-53.9-29.7-88.3-29.1-88.3-29.1l-410.2 12.2-75.3 126.9z" fill="#3E6351" p-id="4019"></path><path d="M22.213 462.981l987.9-5.547 0.19 33.8-987.9 5.547z" fill="#E8C9C6" p-id="4020"></path><path d="M298.3 490.9m-171.1 0a171.1 171.1 0 1 0 342.2 0 171.1 171.1 0 1 0-342.2 0Z" fill="#E6FFFD" p-id="4021"></path><path d="M739.8 490.9m-171.1 0a171.1 171.1 0 1 0 342.2 0 171.1 171.1 0 1 0-342.2 0Z" fill="#E6FFFD" p-id="4022"></path><path d="M213.812 547.312l110.352-187.658 14.568 8.567L228.38 555.878zM263.878 575.71l60.273-100.16 14.48 8.714-60.273 100.16zM660.967 563.597l115.938-182.133 14.257 9.075-115.938 182.133zM721.67 580.164l66.215-104.842 14.289 9.025-66.216 104.842z" fill="#E8C9C6" p-id="4023"></path><path d="M129.1 712.2m-20.1 0a20.1 20.1 0 1 0 40.2 0 20.1 20.1 0 1 0-40.2 0Z" fill="#3E6351" p-id="4024"></path><path d="M694.7 688.9m-7.3 0a7.3 7.3 0 1 0 14.6 0 7.3 7.3 0 1 0-14.6 0Z" fill="#FFFFFF" p-id="4025"></path><path d="M723 720.2m-3.4 0a3.4 3.4 0 1 0 6.8 0 3.4 3.4 0 1 0-6.8 0Z" fill="#FFFFFF" p-id="4026"></path><path d="M762.7 688.5m-3.4 0a3.4 3.4 0 1 0 6.8 0 3.4 3.4 0 1 0-6.8 0Z" fill="#FFFFFF" p-id="4027"></path><path d="M457.6 292.7m-7.7 0a7.7 7.7 0 1 0 15.4 0 7.7 7.7 0 1 0-15.4 0Z" fill="#FFFFFF" p-id="4028"></path><path d="M136.6 716.7m-7.7 0a7.7 7.7 0 1 0 15.4 0 7.7 7.7 0 1 0-15.4 0Z" fill="#FFFFFF" p-id="4029"></path><path d="M311 645.4m-3.7 0a3.7 3.7 0 1 0 7.4 0 3.7 3.7 0 1 0-7.4 0Z" fill="#FFFFFF" p-id="4030"></path><path d="M647.8 613.7m-3.7 0a3.7 3.7 0 1 0 7.4 0 3.7 3.7 0 1 0-7.4 0Z" fill="#FFFFFF" p-id="4031"></path><path d="M703.3 637.5m-3.7 0a3.7 3.7 0 1 0 7.4 0 3.7 3.7 0 1 0-7.4 0Z" fill="#FFFFFF" p-id="4032"></path><path d="M366.5 601.8m-3.7 0a3.7 3.7 0 1 0 7.4 0 3.7 3.7 0 1 0-7.4 0Z" fill="#FFFFFF" p-id="4033"></path><path d="M469.3 272.7m-3.5 0a3.5 3.5 0 1 0 7 0 3.5 3.5 0 1 0-7 0Z" fill="#FFFFFF" p-id="4034"></path><path d="M511.4 256.7m-2.5 0a2.5 2.5 0 1 0 5 0 2.5 2.5 0 1 0-5 0Z" fill="#FFFFFF" p-id="4035"></path><path d="M531.2 213.1m-2.5 0a2.5 2.5 0 1 0 5 0 2.5 2.5 0 1 0-5 0Z" fill="#FFFFFF" p-id="4036"></path><path d="M505 224.5c0.3-1.3 1.6-2.2 2.9-1.9 1.3 0.3 2.2 1.6 1.9 2.9" fill="#FFFFFF" p-id="4037"></path><path d="M425.8 252.6m-3.4 0a3.4 3.4 0 1 0 6.8 0 3.4 3.4 0 1 0-6.8 0Z" fill="#FFFFFF" p-id="4038"></path><path d="M376 841.4m-5.1 0a5.1 5.1 0 1 0 10.2 0 5.1 5.1 0 1 0-10.2 0Z" fill="#FFFFFF" p-id="4039"></path><path d="M387.1 830.8m-2.3 0a2.3 2.3 0 1 0 4.6 0 2.3 2.3 0 1 0-4.6 0Z" fill="#FFFFFF" p-id="4040"></path><path d="M416.9 828.4m-1.6 0a1.6 1.6 0 1 0 3.2 0 1.6 1.6 0 1 0-3.2 0Z" fill="#FFFFFF" p-id="4041"></path><path d="M437.5 804.3m-1.6 0a1.6 1.6 0 1 0 3.2 0 1.6 1.6 0 1 0-3.2 0Z" fill="#FFFFFF" p-id="4042"></path><path d="M418.8 806.7c0.4-0.8 1.4-1.1 2.2-0.6 0.8 0.4 1.1 1.4 0.6 2.2" fill="#FFFFFF" p-id="4043"></path><path d="M363.1 810.1m-2.3 0a2.3 2.3 0 1 0 4.6 0 2.3 2.3 0 1 0-4.6 0Z" fill="#FFFFFF" p-id="4044"></path><path d="M514.7 682.9m-5.1 0a5.1 5.1 0 1 0 10.2 0 5.1 5.1 0 1 0-10.2 0Z" fill="#FFFFFF" p-id="4045"></path><path d="M525.8 672.3m-2.3 0a2.3 2.3 0 1 0 4.6 0 2.3 2.3 0 1 0-4.6 0Z" fill="#FFFFFF" p-id="4046"></path><path d="M555.6 669.9m-1.6 0a1.6 1.6 0 1 0 3.2 0 1.6 1.6 0 1 0-3.2 0Z" fill="#FFFFFF" p-id="4047"></path><path d="M576.2 645.8m-1.6 0a1.6 1.6 0 1 0 3.2 0 1.6 1.6 0 1 0-3.2 0Z" fill="#FFFFFF" p-id="4048"></path><path d="M557.5 648.2c0.4-0.8 1.4-1.1 2.2-0.6 0.8 0.4 1.1 1.4 0.6 2.2" fill="#FFFFFF" p-id="4049"></path><path d="M501.8 651.5m-2.3 0a2.3 2.3 0 1 0 4.6 0 2.3 2.3 0 1 0-4.6 0Z" fill="#FFFFFF" p-id="4050"></path><path d="M641.5 314.4m-5.1 0a5.1 5.1 0 1 0 10.2 0 5.1 5.1 0 1 0-10.2 0Z" fill="#FFFFFF" p-id="4051"></path><path d="M652.6 303.7m-2.3 0a2.3 2.3 0 1 0 4.6 0 2.3 2.3 0 1 0-4.6 0Z" fill="#FFFFFF" p-id="4052"></path><path d="M682.4 301.3m-1.6 0a1.6 1.6 0 1 0 3.2 0 1.6 1.6 0 1 0-3.2 0Z" fill="#FFFFFF" p-id="4053"></path><path d="M703 277.2m-1.6 0a1.6 1.6 0 1 0 3.2 0 1.6 1.6 0 1 0-3.2 0Z" fill="#FFFFFF" p-id="4054"></path><path d="M684.3 279.7c0.4-0.8 1.4-1.1 2.2-0.6 0.8 0.4 1.1 1.4 0.6 2.2" fill="#FFFFFF" p-id="4055"></path><path d="M628.7 283m-2.3 0a2.3 2.3 0 1 0 4.6 0 2.3 2.3 0 1 0-4.6 0Z" fill="#FFFFFF" p-id="4056"></path></svg>
